PathFileType	4	(X/Y/Z)	44_1_8_p0_0-208_filt_butterworth.trc
DataRate	CameraRate	NumFrames	NumMarkers	Units	OrigDataRate	OrigDataStartFrame	OrigNumFrames
60.0	60.0	7	27	m	60.0	182	208
Frame#	Time	RHip			RKnee			RAnkle			RBigToe			RSmallToe			RHeel			LHip			LKnee			LAnkle			LBigToe			LSmallToe			LHeel			Neck			Head			Nose			RShoulder			RElbow			RWrist			RThumb			RIndex			RPinky			LShoulder			LElbow			LWrist			LThumb			LIndex			LPinky			
		X1	Y1	Z1	X2	Y2	Z2	X3	Y3	Z3	X4	Y4	Z4	X5	Y5	Z5	X6	Y6	Z6	X7	Y7	Z7	X8	Y8	Z8	X9	Y9	Z9	X10	Y10	Z10	X11	Y11	Z11	X12	Y12	Z12	X13	Y13	Z13	X14	Y14	Z14	X15	Y15	Z15	X16	Y16	Z16	X17	Y17	Z17	X18	Y18	Z18	X19	Y19	Z19	X20	Y20	Z20	X21	Y21	Z21	X22	Y22	Z22	X23	Y23	Z23	X24	Y24	Z24	X25	Y25	Z25	X26	Y26	Z26	X27	Y27	Z27	
182	3.033333333333333	0.3302680209878022	0.3987707309605609	0.995760268408256	0.32130895481388977	0.5365191530670962	1.4544015295302906	0.31253090541672657	0.6356233911097641	1.837224170974249	0.28614336365167053	0.4300825255969589	1.857293243303474	0.35817019266345584	0.4766300427580159	1.871649195512946	0.2970704951131312	0.7314865804121305	1.9029218938186048	0.10799256920485216	0.46390410520375613	1.0234129933407539	0.11485401684924984	0.5673518194034838	1.4617098268973086	0.14803454458999157	0.6447135491142235	1.8342156342993077	0.1399525180363501	0.45623774626838753	1.8642304061976527	0.09171329454090643	0.5196123283603209	1.8812654402284665	0.16945466122971595	0.6936713853492648	1.8995259073694872	0.22565803754118935	0.38057039607845733	0.4211334171106451	0.2383243217649762	0.3258529790415577	0.15896503679089788	0.24741819069417986	0.2557106795983275	0.3091712577212092	0.38413668228427866	0.3952685646969939	0.5160828272861868	0.43403068151344004	0.33895639257922017	0.7772219546575292	0.2834130045326714	0.28091803056007236	0.9353498167399992	0.18031630560651554	0.2985364813480212	0.9996597509710717	0.18098322807630432	0.31138661786960237	1.024904238929846	0.20532608460069596	0.3108314783057465	1.0349697236556161	0.05579606033919618	0.388263130387488	0.49323460148463616	0.019177396092901224	0.36353729927512246	0.7642219199015995	0.17139882721363559	0.2498278161533111	0.9253958937166034	0.26639181142300905	0.23522564723969597	0.9513865481245369	0.269757988551405	0.23580879461707	1.00367045986867	0.21437053121546817	0.31250201979783215	1.038210281519847
183	3.05	0.3310359607747623	0.3974706094659607	0.9965154119002149	0.32116986390545715	0.5358253268885018	1.454144065040988	0.31282714130392975	0.6364988277069724	1.8391367415719582	0.28605897021630977	0.42988125652175146	1.857134058639545	0.358053592544816	0.47632148783167066	1.8715391113131266	0.29859522397449695	0.7363323490069387	1.9066854705665452	0.10989818221561691	0.46070276053983356	1.022771381003345	0.11763547328949392	0.5631749585459962	1.462441307069481	0.14712960978065934	0.644036644977505	1.834198169738677	0.14002421440134763	0.4557929630342319	1.8643317953013723	0.09171334206528986	0.5199214222522763	1.8813111241335725	0.16898514696681485	0.6947042013165503	1.8997841456461109	0.22577812072313802	0.38030872188650766	0.422272101553706	0.2412772968064163	0.32219302031211605	0.15976703593260744	0.24941030706210215	0.2546299518850998	0.3088270157749286	0.3841844727317179	0.3953725202682731	0.5161905509375129	0.43352619234113204	0.3425450419946293	0.7796368800311982	0.282247346941773	0.2780702558959485	0.9372319117142713	0.18140257733698661	0.2955690870703115	1.0028666159871675	0.18237915620833112	0.31114656021827364	1.026103545905917	0.205327721758407	0.3107342542124527	1.0356338490396628	0.05558359838608129	0.38742355703451214	0.49414801959821625	0.019180031899539138	0.36376406460937927	0.7647385280313855	0.16989175670762696	0.25341119090846853	0.9276491385019868	0.26591495177591734	0.23587623666938007	0.9537225165780963	0.26870374648400996	0.23657067438185397	1.0063918421955158	0.21344603749347182	0.31276182691119764	1.0386402692684937
184	3.066666666666667	0.3312643783242117	0.39861838259534554	0.9974024152865786	0.3211748251239278	0.5356017270448648	1.4538072477488475	0.31295557549931263	0.6370730819274075	1.840631134600975	0.286015285562167	0.4297561994066617	1.8570388420771158	0.35802157737374185	0.476068677818861	1.871480158040951	0.29946383436919616	0.7385410552800429	1.9102504046420443	0.11200311021677685	0.4560097992511049	1.0217127466996692	0.12048244610631798	0.5603735334362747	1.4629764443943913	0.14687263445703783	0.6436656899553698	1.8341304510785943	0.13999887335633407	0.45612276270044133	1.8646641418413852	0.09171061146344843	0.5201684255807031	1.881376073086903	0.1688204032331422	0.6949346258572697	1.9001718905451812	0.22582698449741404	0.3802669238056292	0.42313679593892106	0.2442349827494759	0.31966024278657246	0.16141058545876305	0.25059791776051854	0.25377531339612663	0.30812232112649873	0.38421770235249375	0.3952946050082211	0.5162863733221745	0.4328922915267537	0.34682833922532635	0.782237970111685	0.2816571668815574	0.27712050366625957	0.9386797983625463	0.18385066834535754	0.29174084347635904	1.006207848826179	0.18402401599845447	0.3109108161874044	1.0275244381406756	0.20547650211112603	0.3104922193370509	1.0366206177805353	0.0556111220264533	0.38753607783565536	0.49460440379356685	0.019098136823456947	0.36365183388649275	0.7649705656190993	0.16873372327268996	0.2551832960070997	0.9286441898628783	0.26615019634414117	0.23699196141930085	0.9550997132947863	0.26861347509706923	0.2371798460593902	1.007854226692083	0.21361953423716232	0.31268044820624324	1.03893327747894
185	3.083333333333333	0.3315708649455573	0.40059875362938707	0.9982031851743802	0.321899817918492	0.5365354882451935	1.4537739779214425	0.31296276422429015	0.6372686559231685	1.8413108560346243	0.28602477689681066	0.4297018047471283	1.8570289940519116	0.35804771457856505	0.4759911497650305	1.8714810223401022	0.2997248741846285	0.7388452256833825	1.91233391535563	0.11313250221933828	0.45193138819512774	1.0206635496952012	0.12237262375158217	0.5597072815972746	1.4640301533781648	0.1472726887122254	0.6436135522078102	1.8336855331396524	0.1399490284978384	0.4564241158723668	1.864879658163313	0.09170577047725237	0.520261559963796	1.8814139366623754	0.1688697170586664	0.6944517439189092	1.9007374795353995	0.22579903733911483	0.3804855159066699	0.4234889750180168	0.2465926404153974	0.3186082693093987	0.16335624312154873	0.2509839275281007	0.25352476174490635	0.3076118298569373	0.38421154491859955	0.3951187369955278	0.516357698017629	0.43247035131401673	0.34987632018321396	0.7842802056328458	0.28180129069555704	0.2782405731070489	0.9397094181990006	0.18601695413072042	0.28861231194435283	1.0082234039269422	0.18518323091310243	0.31111197931640144	1.027912116251719	0.20573936720649613	0.31016252641348663	1.0374190611468912	0.05568553888118864	0.3877621169472803	0.4945357889384463	0.01897724952940135	0.3633770333055866	0.7649752305695314	0.16826580612829184	0.25550685315280913	0.9288506496773064	0.2664848033899704	0.23793771493602384	0.955528832871686	0.2689259425057823	0.23734889917918878	1.0080360218905318	0.21394589899300423	0.3126017736527714	1.0394209979238251
186	3.1	0.3321388627153424	0.4015328662794765	0.9988150118295147	0.3236740513075993	0.5390144793693668	1.4548014947270256	0.31294990899026565	0.6372919970686686	1.841476836662016	0.2860487288464327	0.42958396498820767	1.857074554750617	0.358095425676732	0.47600904639371255	1.8715154149833124	0.2996759140639825	0.7385590066275168	1.913044067234428	0.11316694853881225	0.4497084959186883	1.0198383197649976	0.12305533819389261	0.5600807472105432	1.4650268091606966	0.14831666489315637	0.6437431169015785	1.8325842721132686	0.13986931197956476	0.45641636933408974	1.864783714082491	0.09169657929162134	0.5202728311769974	1.8814059858383287	0.1689426473916229	0.6936729388226626	1.9010958872629224	0.2258452668870986	0.38048839410241764	0.4235250903175628	0.24858972519336	0.3174686818831814	0.16464573833874382	0.25094735913280763	0.25367837392470993	0.30707035708318264	0.38428184297948564	0.39524860704174203	0.5164077420412096	0.43238311071444935	0.35125458348826216	0.785415165571089	0.28267394978811894	0.2811607223961952	0.9401002764354337	0.18749281994566527	0.28699355790072284	1.0078932145091557	0.1860367468012221	0.3112664084417104	1.0273137656002702	0.20598807226881596	0.309919172786401	1.037700685089906	0.05573238441944704	0.38766056735121485	0.4936688899133936	0.019055126862098818	0.36340400502987175	0.7649259989584252	0.16821865390495608	0.2552654208414619	0.9287884729775	0.2666188879654068	0.23837834225339008	0.955488107444402	0.2692388795610652	0.2371059132370012	1.0072309246551803	0.21415314963750476	0.31268704184506557	1.040271860760096
187	3.1166666666666667	0.33261909770168285	0.4000125498241941	0.9990689781776926	0.32555104571444565	0.5415642806781049	1.4568689533206407	0.31295339239455505	0.6372957089398257	1.841349828642517	0.2860323853943077	0.4292967339003716	1.8571406966936173	0.3581290357157752	0.47601059715380456	1.871539037255176	0.2995899640690938	0.7384407755293128	1.9130933062060604	0.11276640676215736	0.4490170348266569	1.019408388525143	0.12300221256275837	0.560555377596523	1.4655754301848316	0.14968250943458009	0.6439457598009193	1.8311200331064366	0.13971643702379175	0.45604117470550115	1.8642386924142798	0.09168298736101584	0.5202752212643806	1.8813677465479621	0.16885057403939413	0.6930436134276211	1.9003984904108684	0.22628330233385638	0.37923354371035106	0.4234906685774964	0.2509137982626845	0.3148345414965039	0.16488014791718	0.25080135414110866	0.2539872854701735	0.3061163272460764	0.3847166079384999	0.3964737759556869	0.5164642276496203	0.4327749403209697	0.35242104286311	0.7858804954028245	0.2839273476619458	0.2847264113615349	0.9397400752384693	0.18837850610655948	0.28647683334705026	1.0056891432567947	0.18671201552426764	0.31033583263515335	1.0267020550778059	0.20613964221263217	0.30983662149853175	1.037604687746775	0.05574673348210997	0.3871630148117774	0.4918364438262853	0.019828026157858263	0.36471596209563245	0.764988412275674	0.16824011030834346	0.2549778720120764	0.9286364226058481	0.26658066609586506	0.23841477260847282	0.9553895713081045	0.2693852287991807	0.23657357077084304	1.005901908909194	0.21450932923622693	0.3129102069769157	1.041195013684983
188	3.1333333333333333	0.332774456011581	0.39709382287742956	0.9990046860217601	0.32618948972254697	0.5424188603597042	1.4592376969635632	0.31288067489386095	0.637322772275862	1.840701744926144	0.28596703422149966	0.4288779098910728	1.8571703085494478	0.3581170812082255	0.4759306430630523	1.8715178151847058	0.2995542373578116	0.7386838093718314	1.912652209046744	0.11236357991670506	0.44923975186645043	1.01994706860787	0.12290058799108228	0.5610919508763351	1.4661739992969258	0.15074379084976042	0.6441355159183568	1.8300085854480197	0.13957480440165232	0.4557541946047615	1.8635623468272726	0.09167034950746035	0.5202954820821819	1.8813220156000268	0.1685710656948863	0.6927674582115525	1.8985490054092944	0.2273336688069298	0.37598726050896414	0.42345511796818186	0.25419205893743313	0.311314923723244	0.16431146400523675	0.2506754499995569	0.2542783902877079	0.30489106384112663	0.385731652065686	0.39934968453448855	0.5165548661921237	0.43374986481492395	0.3548103493427824	0.7861427272547813	0.284956796051048	0.2872427181526122	0.9388646145997227	0.18870306731949033	0.286490777088061	1.003598401105532	0.18738668653970522	0.30758682084583633	1.0265373731031255	0.2062135357467879	0.3098576458340153	1.0374293671487511	0.05574414552613925	0.38659424006165927	0.4898050504148782	0.021642724188295298	0.3680496120113261	0.7652543439366758	0.16829829600021742	0.2547234960498219	0.9281933463937858	0.2666120339543952	0.23827263381657757	0.9553206300824748	0.2693847973521838	0.2358963249503082	1.0044724138773602	0.21551067114118466	0.31287363761293707	1.0415525560108871
